<svg width="640" height="278" viewBox="0 0 640 278" fill="none" xmlns="http://www.w3.org/2000/svg">
<g clip-path="url(#clip0_172_2)">
<mask id="mask0_172_2" style="mask-type:luminance" maskUnits="userSpaceOnUse" x="0" y="0" width="642" height="278">
<path d="M642 0H0V278H642V0Z" fill="white"/>
</mask>
<g mask="url(#mask0_172_2)">
<path d="M41.509 72.9599H14.209V41.0399H69.229V13.3199H101.569V40.6199H124.669V13.3199H184.309V41.0399H212.029V239.28H184.309V266.58H152.389V45.6599H129.289V72.9599H101.569V239.28H73.849V266.58H41.509V72.9599ZM275.948 239.28H248.228V183.84H220.928V124.2H248.228V96.4799H280.568V179.22H308.288V206.94H358.688V100.68H331.388V72.9599H248.648V41.0399H275.948V13.3199H363.308V41.0399H391.028V96.4799H418.748V211.56H391.028V239.28H336.008V266.58H275.948V239.28ZM454.947 239.28H427.647V206.94H454.947V179.22H482.667V151.5H509.967V128.4H482.667V100.68H454.947V72.9599H427.647V41.0399H482.667V13.3199H515.007V68.7599H542.727V96.0599H565.407V45.2399H538.527V13.3199H597.747V41.0399H625.467V72.9599H597.747V128.4H570.447V151.5H597.747V206.94H625.467V239.28H597.747V266.58H565.827V211.56H538.107V184.26H487.287V234.66H514.587V266.58H454.947V239.28Z" fill="#E0AAFF"/>
</g>
</g>
<defs>
<clipPath id="clip0_172_2">
<rect width="640" height="278" fill="white"/>
</clipPath>
</defs>
</svg>
